<svg xmlns="http://www.w3.org/2000/svg" xmlns:xlink="http://www.w3.org/1999/xlink" id="Layer_1" width="100" height="100" x="0" y="0" enable-background="new 0 0 100 100" version="1.1" viewBox="0 0 100 100" xml:space="preserve"><g><g><linearGradient id="SVGID_13_" x1="74.113" x2="108.087" y1="-182.834" y2="-182.834" gradientTransform="matrix(0.9316 -0.3635 0.3635 0.9316 24.7176 228.9233)" gradientUnits="userSpaceOnUse"><stop offset="0" style="stop-color:#be1e2d"/><stop offset=".162" style="stop-color:#ce1d2a"/><stop offset=".404" style="stop-color:#df1d27"/><stop offset=".67" style="stop-color:#e91c25"/><stop offset="1" style="stop-color:#ec1c24"/></linearGradient><path fill="url(#SVGID_13_)" d="M24.259,11.988c0,0,0.205,3.49,3.375,19.471c2.929,14.78,15.476,14.267,19.163,13.317 c3.69-0.949,12.35-4.981,16.534-14.25c0,0-9.641,11.881-21.769,11.29c0,0-11.234-1.744-6.432-12.791 c0.59-1.359,6.928-6.077,11.705,0.342c0,0-0.33-7.714-7.587-7.3c-5.037,0.291-5.979,4.272-5.979,4.272S33.47,15.756,24.259,11.988 z"/><linearGradient id="SVGID_14_" x1="85.581" x2="96.471" y1="-195.949" y2="-195.949" gradientTransform="matrix(0.9316 -0.3635 0.3635 0.9316 24.7176 228.9233)" gradientUnits="userSpaceOnUse"><stop offset="0" style="stop-color:#be1e2d"/><stop offset=".162" style="stop-color:#ce1d2a"/><stop offset=".404" style="stop-color:#df1d27"/><stop offset=".67" style="stop-color:#e91c25"/><stop offset="1" style="stop-color:#ec1c24"/></linearGradient><path fill="url(#SVGID_14_)" d="M43.362,11.309c1.091,2.806-0.295,5.961-3.091,7.052c-2.802,1.095-5.962-0.291-7.053-3.092 c-1.091-2.801,0.292-5.957,3.093-7.052C39.111,7.126,42.267,8.512,43.362,11.309z"/></g><g><linearGradient id="SVGID_15_" x1="-471.931" x2="-430.758" y1="-48.935" y2="-48.935" gradientTransform="matrix(0.1182 -0.993 0.993 0.1182 124.8624 -382.3173)" gradientUnits="userSpaceOnUse"><stop offset="0" style="stop-color:#2b388f"/><stop offset=".051" style="stop-color:#293f94"/><stop offset=".254" style="stop-color:#2357a5"/><stop offset=".47" style="stop-color:#1e68b1"/><stop offset=".706" style="stop-color:#1c72b9"/><stop offset="1" style="stop-color:#1b75bb"/></linearGradient><path fill="url(#SVGID_15_)" d="M25.893,81.17c0,0,2.176-2.728,10.52-16.73c7.71-12.937-1.95-20.954-5.329-22.717 c-3.378-1.762-12.513-4.563-21.819-0.474c0,0,15.109-2.374,23.726,6.179c0,0,7.185,8.81-3.78,13.809 c-1.343,0.611-9.212-0.125-8.467-8.088c0,0-4.918,5.954,0.753,10.5c3.938,3.155,7.304,0.826,7.304,0.826 S21.564,72.206,25.893,81.17z"/><linearGradient id="SVGID_16_" x1="-468.226" x2="-457.336" y1="-54.208" y2="-54.208" gradientTransform="matrix(0.1182 -0.993 0.993 0.1182 124.8624 -382.3173)" gradientUnits="userSpaceOnUse"><stop offset="0" style="stop-color:#2b388f"/><stop offset=".051" style="stop-color:#293f94"/><stop offset=".254" style="stop-color:#2357a5"/><stop offset=".47" style="stop-color:#1e68b1"/><stop offset=".706" style="stop-color:#1c72b9"/><stop offset="1" style="stop-color:#1b75bb"/></linearGradient><path fill="url(#SVGID_16_)" d="M11.241,68.892c1.061-2.813,4.204-4.228,7.014-3.167c2.814,1.059,4.233,4.197,3.173,7.013 c-1.061,2.814-4.204,4.234-7.014,3.174C11.6,74.846,10.18,71.701,11.241,68.892z"/></g><g><linearGradient id="SVGID_17_" x1="-225.954" x2="-184.081" y1="-56.753" y2="-56.753" gradientTransform="matrix(0.4011 -0.916 0.916 0.4011 208.8644 -123.604)" gradientUnits="userSpaceOnUse"><stop offset="0" style="stop-color:#f05a28"/><stop offset=".017" style="stop-color:#f05c28"/><stop offset=".227" style="stop-color:#f37423"/><stop offset=".451" style="stop-color:#f58520"/><stop offset=".696" style="stop-color:#f68f1f"/><stop offset="1" style="stop-color:#f6921e"/></linearGradient><path fill="url(#SVGID_17_)" d="M80.858,21.294c0,0-3.05,1.697-16.08,11.491c-12.037,9.05-6.137,20.13-3.677,23.042 c2.459,2.908,9.849,8.964,20.01,8.711c0,0-14.883-3.532-19.612-14.714c0,0-3.311-10.875,8.729-11.342 c1.479-0.061,8.479,3.6,4.769,10.691c0,0,6.807-3.644,3.283-9.999c-2.445-4.414-6.439-3.537-6.439-3.537 S81.467,31.229,80.858,21.294z"/><linearGradient id="SVGID_18_" x1="-199.65" x2="-188.759" y1="-49.336" y2="-49.336" gradientTransform="matrix(0.4011 -0.916 0.916 0.4011 208.8644 -123.604)" gradientUnits="userSpaceOnUse"><stop offset="0" style="stop-color:#f05a28"/><stop offset=".017" style="stop-color:#f05c28"/><stop offset=".227" style="stop-color:#f37423"/><stop offset=".451" style="stop-color:#f58520"/><stop offset=".696" style="stop-color:#f68f1f"/><stop offset="1" style="stop-color:#f6921e"/></linearGradient><path fill="url(#SVGID_18_)" d="M89.758,38.208c-2.049,2.203-5.491,2.322-7.693,0.274c-2.197-2.048-2.322-5.496-0.27-7.693 c2.044-2.203,5.491-2.323,7.689-0.274C91.688,32.563,91.811,36.01,89.758,38.208z"/></g><g><linearGradient id="SVGID_19_" x1="-158.24" x2="-132.207" y1="-13.448" y2="-13.448" gradientTransform="matrix(0.5928 -0.8054 0.8054 0.5928 156.3762 -36.8555)" gradientUnits="userSpaceOnUse"><stop offset="0" style="stop-color:#006838"/><stop offset=".129" style="stop-color:#107d3d"/><stop offset=".315" style="stop-color:#219543"/><stop offset=".514" style="stop-color:#2da647"/><stop offset=".73" style="stop-color:#35b049"/><stop offset="1" style="stop-color:#37b34a"/></linearGradient><path fill="url(#SVGID_19_)" d="M72.627,90.63c0,0-0.018-3.499-2.323-19.625c-2.124-14.912-14.681-15.08-18.419-14.326 c-3.733,0.749-12.598,4.306-17.272,13.334c0,0,10.264-11.341,22.345-10.098c0,0,11.119,2.344,5.73,13.121 c-0.658,1.322-7.244,5.692-11.671-0.976c0,0-0.09,7.719,7.186,7.699c5.045-0.022,6.201-3.943,6.201-3.943 S63.629,86.374,72.627,90.63z"/><linearGradient id="SVGID_20_" x1="-164.364" x2="-153.477" y1="-4.323" y2="-4.323" gradientTransform="matrix(0.5928 -0.8054 0.8054 0.5928 156.3762 -36.8555)" gradientUnits="userSpaceOnUse"><stop offset="0" style="stop-color:#006838"/><stop offset=".129" style="stop-color:#107d3d"/><stop offset=".315" style="stop-color:#219543"/><stop offset=".514" style="stop-color:#2da647"/><stop offset=".73" style="stop-color:#35b049"/><stop offset="1" style="stop-color:#37b34a"/></linearGradient><path fill="url(#SVGID_20_)" d="M53.515,90.28c-0.937-2.858,0.611-5.937,3.468-6.878s5.933,0.617,6.872,3.473 c0.945,2.853-0.611,5.932-3.468,6.873C57.53,94.688,54.455,93.131,53.515,90.28z"/></g></g></svg>